# xmcd
#
# Track frame offsets: 
#        150
#        12702
#        26752
#        41390
#        57612
#        66645
#        82105
#        101292
#        112997
#        127847
#        144120
#        157382
#
# Disc length: 2149 seconds
#
# Revision: 2
# Processed by: cddbd v1.5.2PL0 Copyright (c) Steve Scherf et al.
# Submitted via: ExactAudioCopy v0.99pb5
#
DISCID=a708630c
DTITLE=Steve Chapman - Genesis (The Best of the Early Years)
DYEAR=1987
DGENRE=Christian Country
TTITLE0=Beautiful Day
TTITLE1=Journey Music
TTITLE2=Be Ready
TTITLE3=The News
TTITLE4=Confidence
TTITLE5=Buffalo Creek
TTITLE6=Ashes To Embers
TTITLE7=Snuggles
TTITLE8=Glad I Came By Here
TTITLE9=The Treasure
TTITLE10=What Do You Plan To Do (When You Leave Here?)
TTITLE11=After The Flood, Before The Fire
EXTD=
EXTT0=
EXTT1=
EXTT2=
EXTT3=
EXTT4=
EXTT5=
EXTT6=
EXTT7=
EXTT8=
EXTT9=
EXTT10=
EXTT11=
PLAYORDER=
